<?xml version="1.0" standalone="no"?>
<!DOCTYPE svg PUBLIC "-//W3C//DTD SVG 20010904//EN"
 "http://www.w3.org/TR/2001/REC-SVG-20010904/DTD/svg10.dtd">
<svg version="1.0" xmlns="http://www.w3.org/2000/svg"
 width="159.000000pt" height="159.000000pt" viewBox="0 0 159.000000 159.000000"
 preserveAspectRatio="xMidYMid meet">
<metadata>
Created by potrace 1.11, written by Peter Selinger 2001-2013
</metadata>
<g transform="translate(0.000000,159.000000) scale(0.100000,-0.100000)"
fill="#000000" stroke="none">
<path d="M1118 1555 c-2 -2 -26 -6 -53 -10 -27 -3 -96 -21 -152 -41 -115 -40
-117 -40 -278 7 -122 35 -173 40 -246 23 -193 -45 -336 -195 -373 -391 -12
-67 -14 -230 -2 -289 15 -80 62 -179 135 -284 52 -74 45 -67 131 -155 112
-116 242 -196 340 -211 l45 -7 -35 38 c-19 20 -88 80 -153 131 -199 160 -278
254 -325 388 -21 60 -25 92 -28 211 -1 77 2 160 8 185 49 211 305 333 514 245
l38 -16 -24 -22 c-271 -245 -390 -356 -390 -364 0 -9 69 7 128 29 30 11 96 48
146 82 50 35 128 88 174 119 46 31 90 57 97 57 8 0 83 -45 167 -101 109 -72
152 -105 150 -117 -2 -9 -21 -85 -44 -168 l-40 -150 -92 -13 c-50 -7 -98 -15
-107 -16 -9 -2 -40 -6 -69 -10 -29 -4 -62 -8 -73 -11 -10 -2 -44 -6 -74 -10
-52 -6 -55 -5 -49 14 19 59 24 163 11 223 -11 47 -40 112 -59 132 -16 15 -20
15 -47 2 -33 -17 -32 -10 -31 -205 1 -240 26 -290 140 -290 105 1 366 46 494
86 86 27 84 21 52 131 -8 28 -12 62 -10 75 8 31 13 65 21 132 4 31 11 59 16
61 4 3 47 -19 95 -50 47 -31 89 -54 92 -50 11 11 -42 104 -84 148 -23 25 -96
86 -161 135 -107 82 -181 162 -168 182 10 17 119 32 201 28 67 -3 101 -10 138
-27 65 -32 133 -102 164 -169 21 -47 25 -69 24 -151 -1 -155 -22 -253 -79
-366 -63 -126 -127 -198 -374 -426 -58 -53 -116 -113 -129 -133 -30 -43 -42
-49 -76 -36 -23 9 -26 7 -49 -42 -13 -29 -22 -54 -20 -56 7 -7 117 48 179 89
236 160 483 427 591 639 55 107 73 185 73 305 0 121 -16 191 -62 270 -57 97
-134 162 -234 197 -49 17 -164 32 -174 23z"/>
</g>
</svg>
